<svg width="61" height="3" viewBox="0 0 61 3" fill="none" xmlns="http://www.w3.org/2000/svg">
<path fill-rule="evenodd" clip-rule="evenodd" d="M5.29848 1.34977C5.32523 1.79036 4.99489 2.16952 4.56066 2.19666C4.02341 2.23023 3.48589 2.2638 2.9484 2.29737L2.94337 2.29768C2.40754 2.33114 1.87173 2.36461 1.33618 2.39807C0.901951 2.4252 0.528257 2.09003 0.501516 1.64945C0.474774 1.20886 0.805111 0.829695 1.23934 0.802562C1.77496 0.769094 2.31083 0.735627 2.84669 0.70216L2.8516 0.701853C3.38911 0.668284 3.92659 0.634715 4.46382 0.601147C4.89805 0.574014 5.27174 0.909185 5.29848 1.34977Z" fill="#5AA0D7"/>
<path fill-rule="evenodd" clip-rule="evenodd" d="M8.29981 2.08524C8.30183 1.59376 8.67739 1.19708 9.13865 1.19923L13.4683 1.2194C13.9295 1.22155 14.3018 1.62171 14.2998 2.1132C14.2978 2.60468 13.9222 3.00136 13.461 2.99921L9.13134 2.97904C8.67008 2.97689 8.2978 2.57672 8.29981 2.08524Z" fill="#5AA0D7"/>
<path fill-rule="evenodd" clip-rule="evenodd" d="M18.5063 1.89847C18.5633 1.46284 18.992 1.15238 19.4637 1.20504C19.7773 1.24004 20.0908 1.2753 20.4038 1.31051L20.404 1.31053C20.7173 1.34576 21.0301 1.38094 21.3428 1.41585C21.8145 1.46851 22.1507 1.86434 22.0937 2.29997C22.0367 2.7356 21.608 3.04606 21.1363 2.9934C20.8227 2.95839 20.5092 2.92313 20.1961 2.88792L20.196 2.88791C19.8827 2.85267 19.5699 2.81749 19.2572 2.78259C18.7855 2.72993 18.4493 2.33409 18.5063 1.89847Z" fill="#5AA0D7"/>
<path fill-rule="evenodd" clip-rule="evenodd" d="M30.498 1.58866C30.5318 2.17505 30.1729 2.68417 29.6963 2.72582C28.6737 2.81518 27.6509 2.90597 26.6277 2.9968C26.1511 3.03911 25.7369 2.59808 25.7025 2.01175C25.6681 1.42541 26.0266 0.915793 26.5031 0.873486C27.5262 0.782672 28.55 0.691781 29.5737 0.602329C30.0503 0.560681 30.4641 1.00228 30.498 1.58866Z" fill="#5AA0D7"/>
<path fill-rule="evenodd" clip-rule="evenodd" d="M40.0932 1.21327C40.1528 1.5984 39.8244 1.95068 39.3596 2.0001L35.6568 2.39381C35.192 2.44324 34.7668 2.17109 34.7072 1.78595C34.6475 1.40082 34.976 1.04854 35.4408 0.999121L39.1436 0.605404C39.6084 0.555983 40.0336 0.828132 40.0932 1.21327Z" fill="#5AA0D7"/>
<path fill-rule="evenodd" clip-rule="evenodd" d="M51.4988 0.750305C51.523 1.18699 51.1692 1.55956 50.7086 1.58248C49.9873 1.61835 49.2661 1.65449 48.5447 1.69064L48.5434 1.6907C47.8221 1.72685 47.1005 1.763 46.379 1.79889C45.9183 1.82181 45.5253 1.48638 45.5012 1.0497C45.477 0.613013 45.8308 0.240437 46.2914 0.217525C47.0128 0.181643 47.7342 0.145495 48.4558 0.109339L48.4559 0.109332C49.1775 0.0731759 49.8992 0.0370103 50.621 0.00110732C51.0817 -0.021805 51.4747 0.313622 51.4988 0.750305Z" fill="#5AA0D7"/>
<path fill-rule="evenodd" clip-rule="evenodd" d="M60.4981 0.744885C60.5314 1.18601 60.172 1.56861 59.6953 1.59945L56.6257 1.79802C56.1491 1.82885 55.7357 1.49624 55.7023 1.05511C55.669 0.613987 56.0284 0.231385 56.5051 0.200551L59.5747 0.00198187C60.0513 -0.0288524 60.4647 0.303757 60.4981 0.744885Z" fill="#5AA0D7"/>
</svg>
