<svg width="40" height="40" viewBox="0 0 40 40" fill="none" xmlns="http://www.w3.org/2000/svg">
<path d="M18.5194 20L12.3397 13.8204C12.13 13.6106 12.0255 13.3635 12.0262 13.079C12.027 12.7944 12.1328 12.5467 12.3437 12.3358C12.5546 12.1249 12.801 12.0204 13.0829 12.0223C13.3648 12.0242 13.6106 12.13 13.8204 12.3398L20 18.5194L26.1796 12.3398C26.3894 12.13 26.6365 12.0255 26.9211 12.0263C27.2056 12.027 27.4534 12.1328 27.6643 12.3437C27.8751 12.5546 27.9796 12.801 27.9777 13.0829C27.9758 13.3648 27.87 13.6106 27.6603 13.8204L21.4806 20L27.6603 26.1797C27.87 26.3894 27.9745 26.6366 27.9738 26.9211C27.973 27.2057 27.8672 27.4534 27.6563 27.6643C27.4454 27.8752 27.199 27.9797 26.9171 27.9778C26.6352 27.9759 26.3894 27.8701 26.1796 27.6603L20 21.4807L13.8204 27.6603C13.6106 27.8701 13.3635 27.9746 13.0789 27.9738C12.7944 27.9731 12.5466 27.8672 12.3357 27.6564C12.1249 27.4455 12.0204 27.1991 12.0223 26.9172C12.0242 26.6353 12.13 26.3894 12.3397 26.1797L18.5194 20Z" fill="#161616"/>
</svg>
