<svg width="25" height="24" viewBox="0 0 25 24" fill="none" xmlns="http://www.w3.org/2000/svg">
<rect x="0.5" width="24" height="24" rx="12" fill="#E1E1E1"/>
<path fill-rule="evenodd" clip-rule="evenodd" d="M16.6597 13.0842L12.9162 16.8277C12.6865 17.0574 12.3141 17.0574 12.0843 16.8277L8.34084 13.0842C8.11112 12.8545 8.11112 12.482 8.34084 12.2523C8.57056 12.0226 8.94301 12.0226 9.17273 12.2523L11.9121 14.9916V7.58824C11.9121 7.26336 12.1754 7 12.5003 7C12.8252 7 13.0885 7.26336 13.0885 7.58824V14.9916L15.8279 12.2523C16.0576 12.0226 16.43 12.0226 16.6597 12.2523C16.8895 12.482 16.8895 12.8545 16.6597 13.0842Z" fill="#353535"/>
</svg>
